<?xml version="1.0" encoding="UTF-8" standalone="no"?><!-- Generator: Gravit.io --><svg xmlns="http://www.w3.org/2000/svg" xmlns:xlink="http://www.w3.org/1999/xlink" style="isolation:isolate" viewBox="515.37 231.696 218.873 67.521" width="218.873pt" height="67.521pt"><g><path d=" M 624.806 299.217 C 606.173 299.217 591.045 284.089 591.045 265.456 C 591.045 246.823 606.173 231.696 624.806 231.696 C 643.439 231.696 658.567 246.823 658.567 265.456 C 658.567 284.089 643.439 299.217 624.806 299.217 Z  M 624.809 290.257 C 618.234 290.257 611.919 287.645 607.269 282.995 C 602.619 278.344 599.999 272.03 599.999 265.454 C 599.999 258.878 602.619 252.564 607.269 247.914 C 611.919 243.271 618.234 240.651 624.809 240.651 C 631.385 240.651 637.692 243.271 642.342 247.914 C 646.992 252.564 649.612 258.878 649.612 265.454 C 649.612 272.03 646.992 278.344 642.342 282.995 C 637.692 287.645 631.385 290.257 624.809 290.257 Z " fill-rule="evenodd" fill="rgb(136,0,0)"/><path d=" M 549.13 299.217 C 530.497 299.217 515.37 284.089 515.37 265.456 C 515.37 246.823 530.497 231.696 549.13 231.696 C 567.763 231.696 582.891 246.823 582.891 265.456 C 582.891 284.089 567.763 299.217 549.13 299.217 Z  M 549.129 290.257 C 542.553 290.257 536.238 287.645 531.588 282.995 C 526.938 278.344 524.326 272.03 524.326 265.454 C 524.326 258.878 526.938 252.564 531.588 247.914 C 536.238 243.271 542.553 240.651 549.129 240.651 C 555.704 240.651 562.019 243.271 566.669 247.914 C 571.319 252.564 573.932 258.878 573.932 265.454 C 573.932 272.03 571.319 278.344 566.669 282.995 C 562.019 287.645 555.704 290.257 549.129 290.257 Z " fill-rule="evenodd" fill="rgb(136,0,0)"/><path d=" M 700.482 299.217 C 681.849 299.217 666.721 284.089 666.721 265.456 C 666.721 246.823 681.849 231.696 700.482 231.696 C 719.115 231.696 734.242 246.823 734.242 265.456 C 734.242 284.089 719.115 299.217 700.482 299.217 Z  M 700.483 290.257 C 693.907 290.257 687.592 287.645 682.942 282.995 C 678.292 278.344 675.68 272.03 675.68 265.454 C 675.68 258.878 678.292 252.564 682.942 247.914 C 687.592 243.271 693.907 240.651 700.483 240.651 C 707.059 240.651 713.373 243.271 718.023 247.914 C 722.673 252.564 725.286 258.878 725.286 265.454 C 725.286 272.03 722.673 278.344 718.023 282.995 C 713.373 287.645 707.059 290.257 700.483 290.257 Z " fill-rule="evenodd" fill="rgb(136,0,0)"/></g></svg>