<?xml version="1.0" encoding="UTF-8" standalone="no"?><!-- Generator: Gravit.io --><svg xmlns="http://www.w3.org/2000/svg" xmlns:xlink="http://www.w3.org/1999/xlink" style="isolation:isolate" viewBox="515.37 325.696 218.873 67.521" width="218.873pt" height="67.521pt"><g><path d=" M 624.806 393.217 C 606.173 393.217 591.045 378.089 591.045 359.456 C 591.045 340.823 606.173 325.696 624.806 325.696 C 643.439 325.696 658.567 340.823 658.567 359.456 C 658.567 378.089 643.439 393.217 624.806 393.217 Z  M 624.809 384.257 C 618.234 384.257 611.919 381.645 607.269 376.995 C 602.619 372.344 599.999 366.03 599.999 359.454 C 599.999 352.878 602.619 346.564 607.269 341.914 C 611.919 337.271 618.234 334.651 624.809 334.651 C 631.385 334.651 637.692 337.271 642.342 341.914 C 646.992 346.564 649.612 352.878 649.612 359.454 C 649.612 366.03 646.992 372.344 642.342 376.995 C 637.692 381.645 631.385 384.257 624.809 384.257 Z " fill-rule="evenodd" fill="rgb(136,0,0)"/><path d=" M 549.13 393.217 C 530.497 393.217 515.37 378.089 515.37 359.456 C 515.37 340.823 530.497 325.696 549.13 325.696 C 567.763 325.696 582.891 340.823 582.891 359.456 C 582.891 378.089 567.763 393.217 549.13 393.217 Z  M 566.669 341.914" fill-rule="evenodd" fill="rgb(136,0,0)"/><path d=" M 700.482 393.217 C 681.849 393.217 666.721 378.089 666.721 359.456 C 666.721 340.823 681.849 325.696 700.482 325.696 C 719.115 325.696 734.242 340.823 734.242 359.456 C 734.242 378.089 719.115 393.217 700.482 393.217 Z  M 700.483 384.257 C 693.907 384.257 687.592 381.645 682.942 376.995 C 678.292 372.344 675.68 366.03 675.68 359.454 C 675.68 352.878 678.292 346.564 682.942 341.914 C 687.592 337.271 693.907 334.651 700.483 334.651 C 707.059 334.651 713.373 337.271 718.023 341.914 C 722.673 346.564 725.286 352.878 725.286 359.454 C 725.286 366.03 722.673 372.344 718.023 376.995 C 713.373 381.645 707.059 384.257 700.483 384.257 Z " fill-rule="evenodd" fill="rgb(136,0,0)"/></g></svg>