<?xml version="1.0" encoding="UTF-8" standalone="no"?><!-- Generator: Gravit.io --><svg xmlns="http://www.w3.org/2000/svg" xmlns:xlink="http://www.w3.org/1999/xlink" style="isolation:isolate" viewBox="515.37 493.817 218.873 67.521" width="218.873pt" height="67.521pt"><g><path d=" M 624.806 561.338 C 606.173 561.338 591.045 546.211 591.045 527.578 C 591.045 508.945 606.173 493.817 624.806 493.817 C 643.439 493.817 658.567 508.945 658.567 527.578 C 658.567 546.211 643.439 561.338 624.806 561.338 Z  M 599.999 527.575" fill-rule="evenodd" fill="rgb(136,0,0)"/><path d=" M 549.13 561.338 C 530.497 561.338 515.37 546.211 515.37 527.578 C 515.37 508.945 530.497 493.817 549.13 493.817 C 567.763 493.817 582.891 508.945 582.891 527.578 C 582.891 546.211 567.763 561.338 549.13 561.338 Z  M 566.669 510.035" fill-rule="evenodd" fill="rgb(136,0,0)"/><path d=" M 700.482 561.338 C 681.849 561.338 666.721 546.211 666.721 527.578 C 666.721 508.945 681.849 493.817 700.482 493.817 C 719.115 493.817 734.242 508.945 734.242 527.578 C 734.242 546.211 719.115 561.338 700.482 561.338 Z  M 700.483 552.378 C 693.907 552.378 687.592 549.766 682.942 545.116 C 678.292 540.466 675.68 534.151 675.68 527.575 C 675.68 521 678.292 514.685 682.942 510.035 C 687.592 505.392 693.907 502.772 700.483 502.772 C 707.059 502.772 713.373 505.392 718.023 510.035 C 722.673 514.685 725.286 521 725.286 527.575 C 725.286 534.151 722.673 540.466 718.023 545.116 C 713.373 549.766 707.059 552.378 700.483 552.378 Z " fill-rule="evenodd" fill="rgb(136,0,0)"/></g></svg>