<?xml version="1.0" encoding="UTF-8" standalone="no"?><!-- Generator: Gravit.io --><svg xmlns="http://www.w3.org/2000/svg" xmlns:xlink="http://www.w3.org/1999/xlink" style="isolation:isolate" viewBox="515.37 648.362 218.873 67.521" width="218.873pt" height="67.521pt"><g><path d=" M 624.806 715.884 C 606.173 715.884 591.045 700.756 591.045 682.123 C 591.045 663.49 606.173 648.362 624.806 648.362 C 643.439 648.362 658.567 663.49 658.567 682.123 C 658.567 700.756 643.439 715.884 624.806 715.884 Z  M 624.809 706.924 C 618.234 706.924 611.919 704.311 607.269 699.661 C 602.619 695.011 599.999 688.697 599.999 682.121 C 599.999 675.545 602.619 669.23 607.269 664.58 C 611.919 659.938 618.234 657.318 624.809 657.318 C 631.385 657.318 637.692 659.938 642.342 664.58 C 646.992 669.23 649.612 675.545 649.612 682.121 C 649.612 688.697 646.992 695.011 642.342 699.661 C 637.692 704.311 631.385 706.924 624.809 706.924 Z " fill-rule="evenodd" fill="rgb(136,0,0)"/><path d=" M 549.13 715.884 C 530.497 715.884 515.37 700.756 515.37 682.123 C 515.37 663.49 530.497 648.362 549.13 648.362 C 567.763 648.362 582.891 663.49 582.891 682.123 C 582.891 700.756 567.763 715.884 549.13 715.884 Z  M 573.932 682.121" fill-rule="evenodd" fill="rgb(136,0,0)"/><path d=" M 700.482 715.884 C 681.849 715.884 666.721 700.756 666.721 682.123 C 666.721 663.49 681.849 648.362 700.482 648.362 C 719.115 648.362 734.242 663.49 734.242 682.123 C 734.242 700.756 719.115 715.884 700.482 715.884 Z  M 718.023 699.661" fill-rule="evenodd" fill="rgb(136,0,0)"/></g></svg>