<?xml version="1.0" encoding="UTF-8" standalone="no"?><!-- Generator: Gravit.io --><svg xmlns="http://www.w3.org/2000/svg" xmlns:xlink="http://www.w3.org/1999/xlink" style="isolation:isolate" viewBox="515.37 415.029 218.873 67.521" width="218.873pt" height="67.521pt"><g><path d=" M 624.806 482.55 C 606.173 482.55 591.045 467.423 591.045 448.79 C 591.045 430.157 606.173 415.029 624.806 415.029 C 643.439 415.029 658.567 430.157 658.567 448.79 C 658.567 467.423 643.439 482.55 624.806 482.55 Z  M 642.342 431.247" fill-rule="evenodd" fill="rgb(136,0,0)"/><path d=" M 549.13 482.55 C 530.497 482.55 515.37 467.423 515.37 448.79 C 515.37 430.157 530.497 415.029 549.13 415.029 C 567.763 415.029 582.891 430.157 582.891 448.79 C 582.891 467.423 567.763 482.55 549.13 482.55 Z  M 549.129 473.59 C 542.553 473.59 536.238 470.978 531.588 466.328 C 526.938 461.678 524.326 455.363 524.326 448.787 C 524.326 442.212 526.938 435.897 531.588 431.247 C 536.238 426.604 542.553 423.985 549.129 423.985 C 555.704 423.985 562.019 426.604 566.669 431.247 C 571.319 435.897 573.932 442.212 573.932 448.787 C 573.932 455.363 571.319 461.678 566.669 466.328 C 562.019 470.978 555.704 473.59 549.129 473.59 Z " fill-rule="evenodd" fill="rgb(136,0,0)"/><path d=" M 700.482 482.55 C 681.849 482.55 666.721 467.423 666.721 448.79 C 666.721 430.157 681.849 415.029 700.482 415.029 C 719.115 415.029 734.242 430.157 734.242 448.79 C 734.242 467.423 719.115 482.55 700.482 482.55 Z  M 700.483 473.59 C 693.907 473.59 687.592 470.978 682.942 466.328 C 678.292 461.678 675.68 455.363 675.68 448.787 C 675.68 442.212 678.292 435.897 682.942 431.247 C 687.592 426.604 693.907 423.985 700.483 423.985 C 707.059 423.985 713.373 426.604 718.023 431.247 C 722.673 435.897 725.286 442.212 725.286 448.787 C 725.286 455.363 722.673 461.678 718.023 466.328 C 713.373 470.978 707.059 473.59 700.483 473.59 Z " fill-rule="evenodd" fill="rgb(136,0,0)"/></g></svg>