<?xml version="1.0" encoding="UTF-8" standalone="no"?><!-- Generator: Gravit.io --><svg xmlns="http://www.w3.org/2000/svg" xmlns:xlink="http://www.w3.org/1999/xlink" style="isolation:isolate" viewBox="515.37 574.12 218.873 67.521" width="218.873pt" height="67.521pt"><g><path d=" M 624.806 641.641 C 606.173 641.641 591.045 626.514 591.045 607.881 C 591.045 589.248 606.173 574.12 624.806 574.12 C 643.439 574.12 658.567 589.248 658.567 607.881 C 658.567 626.514 643.439 641.641 624.806 641.641 Z  M 624.809 632.681" fill-rule="evenodd" fill="rgb(136,0,0)"/><path d=" M 549.13 641.641 C 530.497 641.641 515.37 626.514 515.37 607.881 C 515.37 589.248 530.497 574.12 549.13 574.12 C 567.763 574.12 582.891 589.248 582.891 607.881 C 582.891 626.514 567.763 641.641 549.13 641.641 Z  M 549.129 632.681 C 542.553 632.681 536.238 630.069 531.588 625.419 C 526.938 620.769 524.326 614.454 524.326 607.878 C 524.326 601.303 526.938 594.988 531.588 590.338 C 536.238 585.695 542.553 583.076 549.129 583.076 C 555.704 583.076 562.019 585.695 566.669 590.338 C 571.319 594.988 573.932 601.303 573.932 607.878 C 573.932 614.454 571.319 620.769 566.669 625.419 C 562.019 630.069 555.704 632.681 549.129 632.681 Z " fill-rule="evenodd" fill="rgb(136,0,0)"/><path d=" M 700.482 641.641 C 681.849 641.641 666.721 626.514 666.721 607.881 C 666.721 589.248 681.849 574.12 700.482 574.12 C 719.115 574.12 734.242 589.248 734.242 607.881 C 734.242 626.514 719.115 641.641 700.482 641.641 Z  M 718.023 590.338" fill-rule="evenodd" fill="rgb(136,0,0)"/></g></svg>