<?xml version="1.0" encoding="UTF-8" standalone="no"?><!-- Generator: Gravit.io --><svg xmlns="http://www.w3.org/2000/svg" xmlns:xlink="http://www.w3.org/1999/xlink" style="isolation:isolate" viewBox="515.37 730.15 218.873 67.521" width="218.873pt" height="67.521pt"><g><path d=" M 624.806 797.672 C 606.173 797.672 591.045 782.544 591.045 763.911 C 591.045 745.278 606.173 730.15 624.806 730.15 C 643.439 730.15 658.567 745.278 658.567 763.911 C 658.567 782.544 643.439 797.672 624.806 797.672 Z  M 624.809 788.712 C 618.234 788.712 611.919 786.099 607.269 781.449 C 602.619 776.799 599.999 770.484 599.999 763.909 C 599.999 757.333 602.619 751.018 607.269 746.368 C 611.919 741.726 618.234 739.106 624.809 739.106 C 631.385 739.106 637.692 741.726 642.342 746.368 C 646.992 751.018 649.612 757.333 649.612 763.909 C 649.612 770.484 646.992 776.799 642.342 781.449 C 637.692 786.099 631.385 788.712 624.809 788.712 Z " fill-rule="evenodd" fill="rgb(136,0,0)"/><path d=" M 549.13 797.672 C 530.497 797.672 515.37 782.544 515.37 763.911 C 515.37 745.278 530.497 730.15 549.13 730.15 C 567.763 730.15 582.891 745.278 582.891 763.911 C 582.891 782.544 567.763 797.672 549.13 797.672 Z  M 549.129 788.712 C 542.553 788.712 536.238 786.099 531.588 781.449 C 526.938 776.799 524.326 770.484 524.326 763.909 C 524.326 757.333 526.938 751.018 531.588 746.368 C 536.238 741.726 542.553 739.106 549.129 739.106 C 555.704 739.106 562.019 741.726 566.669 746.368 C 571.319 751.018 573.932 757.333 573.932 763.909 C 573.932 770.484 571.319 776.799 566.669 781.449 C 562.019 786.099 555.704 788.712 549.129 788.712 Z " fill-rule="evenodd" fill="rgb(136,0,0)"/><path d=" M 700.482 797.672 C 681.849 797.672 666.721 782.544 666.721 763.911 C 666.721 745.278 681.849 730.15 700.482 730.15 C 719.115 730.15 734.242 745.278 734.242 763.911 C 734.242 782.544 719.115 797.672 700.482 797.672 Z  M 700.483 788.712" fill-rule="evenodd" fill="rgb(136,0,0)"/></g></svg>