<?xml version="1.0" encoding="UTF-8" standalone="no"?><!-- Generator: Gravit.io --><svg xmlns="http://www.w3.org/2000/svg" xmlns:xlink="http://www.w3.org/1999/xlink" style="isolation:isolate" viewBox="84 230.181 276 67.521" width="276pt" height="67.521pt"><g><path d=" M 250.564 297.702 C 231.931 297.702 216.803 282.574 216.803 263.941 C 216.803 245.308 231.931 230.181 250.564 230.181 C 269.197 230.181 284.324 245.308 284.324 263.941 C 284.324 282.574 269.197 297.702 250.564 297.702 Z  M 250.567 288.742 C 243.991 288.742 237.677 286.129 233.027 281.479 C 228.377 276.829 225.757 270.515 225.757 263.939 C 225.757 257.363 228.377 251.049 233.027 246.399 C 237.677 241.756 243.991 239.136 250.567 239.136 C 257.143 239.136 263.45 241.756 268.1 246.399 C 272.75 251.049 275.37 257.363 275.37 263.939 C 275.37 270.515 272.75 276.829 268.1 281.479 C 263.45 286.129 257.143 288.742 250.567 288.742 Z " fill-rule="evenodd" fill="rgb(136,0,0)"/><path d=" M 174.888 297.702 C 156.255 297.702 141.127 282.574 141.127 263.941 C 141.127 245.308 156.255 230.181 174.888 230.181 C 193.521 230.181 208.648 245.308 208.648 263.941 C 208.648 282.574 193.521 297.702 174.888 297.702 Z  M 174.886 288.742 C 168.311 288.742 161.996 286.129 157.346 281.479 C 152.696 276.829 150.083 270.515 150.083 263.939 C 150.083 257.363 152.696 251.049 157.346 246.399 C 161.996 241.756 168.311 239.136 174.886 239.136 C 181.462 239.136 187.777 241.756 192.427 246.399 C 197.077 251.049 199.689 257.363 199.689 263.939 C 199.689 270.515 197.077 276.829 192.427 281.479 C 187.777 286.129 181.462 288.742 174.886 288.742 Z " fill-rule="evenodd" fill="rgb(136,0,0)"/><path d=" M 326.239 297.702 C 307.606 297.702 292.479 282.574 292.479 263.941 C 292.479 245.308 307.606 230.181 326.239 230.181 C 344.872 230.181 360 245.308 360 263.941 C 360 282.574 344.872 297.702 326.239 297.702 Z  M 326.24 288.742 C 319.665 288.742 313.35 286.129 308.7 281.479 C 304.05 276.829 301.437 270.515 301.437 263.939 C 301.437 257.363 304.05 251.049 308.7 246.399 C 313.35 241.756 319.665 239.136 326.24 239.136 C 332.816 239.136 339.131 241.756 343.781 246.399 C 348.431 251.049 351.043 257.363 351.043 263.939 C 351.043 270.515 348.431 276.829 343.781 281.479 C 339.131 286.129 332.816 288.742 326.24 288.742 Z " fill-rule="evenodd" fill="rgb(136,0,0)"/><g clip-path="url(#_clipPath_UPp1dQYvcO9hCcJP8vFMpYP11pjaShX7)"><text transform="matrix(0.807,0,0,0.807,88.307,290.494)" style="font-family:'Josefin Sans';font-weight:700;font-size:91px;font-style:normal;fill:#880000;stroke:none;">T</text></g><defs><clipPath id="_clipPath_UPp1dQYvcO9hCcJP8vFMpYP11pjaShX7"><rect x="0" y="0" width="66" height="70.69" transform="matrix(0.807,0,0,0.807,84,235.42)"/></clipPath></defs></g></svg>