<?xml version="1.0" encoding="UTF-8" standalone="no"?><!-- Generator: Gravit.io --><svg xmlns="http://www.w3.org/2000/svg" xmlns:xlink="http://www.w3.org/1999/xlink" style="isolation:isolate" viewBox="84 324.181 276 67.521" width="276pt" height="67.521pt"><g><path d=" M 250.564 391.702 C 231.931 391.702 216.803 376.574 216.803 357.941 C 216.803 339.308 231.931 324.181 250.564 324.181 C 269.197 324.181 284.324 339.308 284.324 357.941 C 284.324 376.574 269.197 391.702 250.564 391.702 Z  M 250.567 382.742 C 243.991 382.742 237.677 380.129 233.027 375.479 C 228.377 370.829 225.757 364.515 225.757 357.939 C 225.757 351.363 228.377 345.049 233.027 340.399 C 237.677 335.756 243.991 333.136 250.567 333.136 C 257.143 333.136 263.45 335.756 268.1 340.399 C 272.75 345.049 275.37 351.363 275.37 357.939 C 275.37 364.515 272.75 370.829 268.1 375.479 C 263.45 380.129 257.143 382.742 250.567 382.742 Z " fill-rule="evenodd" fill="rgb(136,0,0)"/><path d=" M 174.888 391.702 C 156.255 391.702 141.127 376.574 141.127 357.941 C 141.127 339.308 156.255 324.181 174.888 324.181 C 193.521 324.181 208.648 339.308 208.648 357.941 C 208.648 376.574 193.521 391.702 174.888 391.702 Z  M 192.427 340.399" fill-rule="evenodd" fill="rgb(136,0,0)"/><path d=" M 326.239 391.702 C 307.606 391.702 292.479 376.574 292.479 357.941 C 292.479 339.308 307.606 324.181 326.239 324.181 C 344.872 324.181 360 339.308 360 357.941 C 360 376.574 344.872 391.702 326.239 391.702 Z  M 326.24 382.742 C 319.665 382.742 313.35 380.129 308.7 375.479 C 304.05 370.829 301.437 364.515 301.437 357.939 C 301.437 351.363 304.05 345.049 308.7 340.399 C 313.35 335.756 319.665 333.136 326.24 333.136 C 332.816 333.136 339.131 335.756 343.781 340.399 C 348.431 345.049 351.043 351.363 351.043 357.939 C 351.043 364.515 348.431 370.829 343.781 375.479 C 339.131 380.129 332.816 382.742 326.24 382.742 Z " fill-rule="evenodd" fill="rgb(136,0,0)"/><g clip-path="url(#_clipPath_5LLPQYuBdwkowLFCJPWtXk7vz339aJ97)"><text transform="matrix(0.807,0,0,0.807,88.307,384.494)" style="font-family:'Josefin Sans';font-weight:700;font-size:91px;font-style:normal;fill:#880000;stroke:none;">T</text></g><defs><clipPath id="_clipPath_5LLPQYuBdwkowLFCJPWtXk7vz339aJ97"><rect x="0" y="0" width="66" height="70.69" transform="matrix(0.807,0,0,0.807,84,329.42)"/></clipPath></defs></g></svg>