<?xml version="1.0" encoding="UTF-8" standalone="no"?><!-- Generator: Gravit.io --><svg xmlns="http://www.w3.org/2000/svg" xmlns:xlink="http://www.w3.org/1999/xlink" style="isolation:isolate" viewBox="84 492.302 276 67.521" width="276pt" height="67.521pt"><g><path d=" M 250.564 559.823 C 231.931 559.823 216.803 544.695 216.803 526.062 C 216.803 507.429 231.931 492.302 250.564 492.302 C 269.197 492.302 284.324 507.429 284.324 526.062 C 284.324 544.695 269.197 559.823 250.564 559.823 Z  M 225.757 526.06" fill-rule="evenodd" fill="rgb(136,0,0)"/><path d=" M 174.888 559.823 C 156.255 559.823 141.127 544.695 141.127 526.062 C 141.127 507.429 156.255 492.302 174.888 492.302 C 193.521 492.302 208.648 507.429 208.648 526.062 C 208.648 544.695 193.521 559.823 174.888 559.823 Z  M 192.427 508.52" fill-rule="evenodd" fill="rgb(136,0,0)"/><path d=" M 326.239 559.823 C 307.606 559.823 292.479 544.695 292.479 526.062 C 292.479 507.429 307.606 492.302 326.239 492.302 C 344.872 492.302 360 507.429 360 526.062 C 360 544.695 344.872 559.823 326.239 559.823 Z  M 326.24 550.863 C 319.665 550.863 313.35 548.251 308.7 543.601 C 304.05 538.951 301.437 532.636 301.437 526.06 C 301.437 519.484 304.05 513.17 308.7 508.52 C 313.35 503.877 319.665 501.257 326.24 501.257 C 332.816 501.257 339.131 503.877 343.781 508.52 C 348.431 513.17 351.043 519.484 351.043 526.06 C 351.043 532.636 348.431 538.951 343.781 543.601 C 339.131 548.251 332.816 550.863 326.24 550.863 Z " fill-rule="evenodd" fill="rgb(136,0,0)"/><g clip-path="url(#_clipPath_CxDM0Y46DKBLpVs8LYCWvDNPcNwPoHpb)"><text transform="matrix(0.807,0,0,0.807,88.307,552.615)" style="font-family:'Josefin Sans';font-weight:700;font-size:91px;font-style:normal;fill:#880000;stroke:none;">T</text></g><defs><clipPath id="_clipPath_CxDM0Y46DKBLpVs8LYCWvDNPcNwPoHpb"><rect x="0" y="0" width="66" height="70.69" transform="matrix(0.807,0,0,0.807,84,497.541)"/></clipPath></defs></g></svg>