<?xml version="1.0" encoding="UTF-8" standalone="no"?><!-- Generator: Gravit.io --><svg xmlns="http://www.w3.org/2000/svg" xmlns:xlink="http://www.w3.org/1999/xlink" style="isolation:isolate" viewBox="84 799.105 276 67.521" width="276pt" height="67.521pt"><g><path d=" M 250.564 866.626 C 231.931 866.626 216.803 851.499 216.803 832.866 C 216.803 814.233 231.931 799.105 250.564 799.105 C 269.197 799.105 284.324 814.233 284.324 832.866 C 284.324 851.499 269.197 866.626 250.564 866.626 Z  M 250.567 857.666" fill-rule="evenodd" fill="rgb(136,0,0)"/><path d=" M 174.888 866.626 C 156.255 866.626 141.127 851.499 141.127 832.866 C 141.127 814.233 156.255 799.105 174.888 799.105 C 193.521 799.105 208.648 814.233 208.648 832.866 C 208.648 851.499 193.521 866.626 174.888 866.626 Z  M 157.346 850.404" fill-rule="evenodd" fill="rgb(136,0,0)"/><path d=" M 326.239 866.626 C 307.606 866.626 292.479 851.499 292.479 832.866 C 292.479 814.233 307.606 799.105 326.239 799.105 C 344.872 799.105 360 814.233 360 832.866 C 360 851.499 344.872 866.626 326.239 866.626 Z  M 343.781 815.323" fill-rule="evenodd" fill="rgb(136,0,0)"/><g clip-path="url(#_clipPath_f2CzjmPVATeF3t7qpFgBgPnJv3YEOfop)"><text transform="matrix(0.807,0,0,0.807,88.307,859.418)" style="font-family:'Josefin Sans';font-weight:700;font-size:91px;font-style:normal;fill:#880000;stroke:none;">T</text></g><defs><clipPath id="_clipPath_f2CzjmPVATeF3t7qpFgBgPnJv3YEOfop"><rect x="0" y="0" width="66" height="70.69" transform="matrix(0.807,0,0,0.807,84,804.344)"/></clipPath></defs></g></svg>