<?xml version="1.0" encoding="UTF-8" standalone="no"?><!-- Generator: Gravit.io --><svg xmlns="http://www.w3.org/2000/svg" xmlns:xlink="http://www.w3.org/1999/xlink" style="isolation:isolate" viewBox="84 646.847 276 67.521" width="276pt" height="67.521pt"><g><path d=" M 250.564 714.369 C 231.931 714.369 216.803 699.241 216.803 680.608 C 216.803 661.975 231.931 646.847 250.564 646.847 C 269.197 646.847 284.324 661.975 284.324 680.608 C 284.324 699.241 269.197 714.369 250.564 714.369 Z  M 250.567 705.409 C 243.991 705.409 237.677 702.796 233.027 698.146 C 228.377 693.496 225.757 687.181 225.757 680.606 C 225.757 674.03 228.377 667.715 233.027 663.065 C 237.677 658.423 243.991 655.803 250.567 655.803 C 257.143 655.803 263.45 658.423 268.1 663.065 C 272.75 667.715 275.37 674.03 275.37 680.606 C 275.37 687.181 272.75 693.496 268.1 698.146 C 263.45 702.796 257.143 705.409 250.567 705.409 Z " fill-rule="evenodd" fill="rgb(136,0,0)"/><path d=" M 174.888 714.369 C 156.255 714.369 141.127 699.241 141.127 680.608 C 141.127 661.975 156.255 646.847 174.888 646.847 C 193.521 646.847 208.648 661.975 208.648 680.608 C 208.648 699.241 193.521 714.369 174.888 714.369 Z  M 199.689 680.606" fill-rule="evenodd" fill="rgb(136,0,0)"/><path d=" M 326.239 714.369 C 307.606 714.369 292.479 699.241 292.479 680.608 C 292.479 661.975 307.606 646.847 326.239 646.847 C 344.872 646.847 360 661.975 360 680.608 C 360 699.241 344.872 714.369 326.239 714.369 Z  M 343.781 698.146" fill-rule="evenodd" fill="rgb(136,0,0)"/><g clip-path="url(#_clipPath_8R45GUYQ5bcLLhYcJDHXviFUkwxodpq9)"><text transform="matrix(0.807,0,0,0.807,88.307,707.16)" style="font-family:'Josefin Sans';font-weight:700;font-size:91px;font-style:normal;fill:#880000;stroke:none;">T</text></g><defs><clipPath id="_clipPath_8R45GUYQ5bcLLhYcJDHXviFUkwxodpq9"><rect x="0" y="0" width="66" height="70.69" transform="matrix(0.807,0,0,0.807,84,652.087)"/></clipPath></defs></g></svg>