<?xml version="1.0" encoding="UTF-8" standalone="no"?><!-- Generator: Gravit.io --><svg xmlns="http://www.w3.org/2000/svg" xmlns:xlink="http://www.w3.org/1999/xlink" style="isolation:isolate" viewBox="84 413.514 276 67.521" width="276pt" height="67.521pt"><g><path d=" M 250.564 481.035 C 231.931 481.035 216.803 465.908 216.803 447.275 C 216.803 428.642 231.931 413.514 250.564 413.514 C 269.197 413.514 284.324 428.642 284.324 447.275 C 284.324 465.908 269.197 481.035 250.564 481.035 Z  M 268.1 429.732" fill-rule="evenodd" fill="rgb(136,0,0)"/><path d=" M 174.888 481.035 C 156.255 481.035 141.127 465.908 141.127 447.275 C 141.127 428.642 156.255 413.514 174.888 413.514 C 193.521 413.514 208.648 428.642 208.648 447.275 C 208.648 465.908 193.521 481.035 174.888 481.035 Z  M 174.886 472.075 C 168.311 472.075 161.996 469.463 157.346 464.813 C 152.696 460.163 150.083 453.848 150.083 447.272 C 150.083 440.697 152.696 434.382 157.346 429.732 C 161.996 425.089 168.311 422.469 174.886 422.469 C 181.462 422.469 187.777 425.089 192.427 429.732 C 197.077 434.382 199.689 440.697 199.689 447.272 C 199.689 453.848 197.077 460.163 192.427 464.813 C 187.777 469.463 181.462 472.075 174.886 472.075 Z " fill-rule="evenodd" fill="rgb(136,0,0)"/><path d=" M 326.239 481.035 C 307.606 481.035 292.479 465.908 292.479 447.275 C 292.479 428.642 307.606 413.514 326.239 413.514 C 344.872 413.514 360 428.642 360 447.275 C 360 465.908 344.872 481.035 326.239 481.035 Z  M 326.24 472.075 C 319.665 472.075 313.35 469.463 308.7 464.813 C 304.05 460.163 301.437 453.848 301.437 447.272 C 301.437 440.697 304.05 434.382 308.7 429.732 C 313.35 425.089 319.665 422.469 326.24 422.469 C 332.816 422.469 339.131 425.089 343.781 429.732 C 348.431 434.382 351.043 440.697 351.043 447.272 C 351.043 453.848 348.431 460.163 343.781 464.813 C 339.131 469.463 332.816 472.075 326.24 472.075 Z " fill-rule="evenodd" fill="rgb(136,0,0)"/><g clip-path="url(#_clipPath_jhjo0RlVERTARZUGMRGO0upPD4K8PyKM)"><text transform="matrix(0.807,0,0,0.807,88.307,473.827)" style="font-family:'Josefin Sans';font-weight:700;font-size:91px;font-style:normal;fill:#880000;stroke:none;">T</text></g><defs><clipPath id="_clipPath_jhjo0RlVERTARZUGMRGO0upPD4K8PyKM"><rect x="0" y="0" width="66" height="70.69" transform="matrix(0.807,0,0,0.807,84,418.753)"/></clipPath></defs></g></svg>