<?xml version="1.0" encoding="UTF-8" standalone="no"?><!-- Generator: Gravit.io --><svg xmlns="http://www.w3.org/2000/svg" xmlns:xlink="http://www.w3.org/1999/xlink" style="isolation:isolate" viewBox="84 572.605 276 67.521" width="276pt" height="67.521pt"><g><path d=" M 250.564 640.126 C 231.931 640.126 216.803 624.999 216.803 606.366 C 216.803 587.733 231.931 572.605 250.564 572.605 C 269.197 572.605 284.324 587.733 284.324 606.366 C 284.324 624.999 269.197 640.126 250.564 640.126 Z  M 250.567 631.166" fill-rule="evenodd" fill="rgb(136,0,0)"/><path d=" M 174.888 640.126 C 156.255 640.126 141.127 624.999 141.127 606.366 C 141.127 587.733 156.255 572.605 174.888 572.605 C 193.521 572.605 208.648 587.733 208.648 606.366 C 208.648 624.999 193.521 640.126 174.888 640.126 Z  M 174.886 631.166 C 168.311 631.166 161.996 628.554 157.346 623.904 C 152.696 619.254 150.083 612.939 150.083 606.363 C 150.083 599.787 152.696 593.473 157.346 588.823 C 161.996 584.18 168.311 581.56 174.886 581.56 C 181.462 581.56 187.777 584.18 192.427 588.823 C 197.077 593.473 199.689 599.787 199.689 606.363 C 199.689 612.939 197.077 619.254 192.427 623.904 C 187.777 628.554 181.462 631.166 174.886 631.166 Z " fill-rule="evenodd" fill="rgb(136,0,0)"/><path d=" M 326.239 640.126 C 307.606 640.126 292.479 624.999 292.479 606.366 C 292.479 587.733 307.606 572.605 326.239 572.605 C 344.872 572.605 360 587.733 360 606.366 C 360 624.999 344.872 640.126 326.239 640.126 Z  M 343.781 588.823" fill-rule="evenodd" fill="rgb(136,0,0)"/><g clip-path="url(#_clipPath_vpR2t9CyjhsXAbRkh50NlPKTbI1ftXWD)"><text transform="matrix(0.807,0,0,0.807,88.307,632.918)" style="font-family:'Josefin Sans';font-weight:700;font-size:91px;font-style:normal;fill:#880000;stroke:none;">T</text></g><defs><clipPath id="_clipPath_vpR2t9CyjhsXAbRkh50NlPKTbI1ftXWD"><rect x="0" y="0" width="66" height="70.69" transform="matrix(0.807,0,0,0.807,84,577.844)"/></clipPath></defs></g></svg>