<?xml version="1.0" encoding="UTF-8" standalone="no"?><!-- Generator: Gravit.io --><svg xmlns="http://www.w3.org/2000/svg" xmlns:xlink="http://www.w3.org/1999/xlink" style="isolation:isolate" viewBox="84 728.635 276 67.521" width="276pt" height="67.521pt"><g><path d=" M 250.564 796.156 C 231.931 796.156 216.803 781.029 216.803 762.396 C 216.803 743.763 231.931 728.635 250.564 728.635 C 269.197 728.635 284.324 743.763 284.324 762.396 C 284.324 781.029 269.197 796.156 250.564 796.156 Z  M 250.567 787.196 C 243.991 787.196 237.677 784.584 233.027 779.934 C 228.377 775.284 225.757 768.969 225.757 762.394 C 225.757 755.818 228.377 749.503 233.027 744.853 C 237.677 740.211 243.991 737.591 250.567 737.591 C 257.143 737.591 263.45 740.211 268.1 744.853 C 272.75 749.503 275.37 755.818 275.37 762.394 C 275.37 768.969 272.75 775.284 268.1 779.934 C 263.45 784.584 257.143 787.196 250.567 787.196 Z " fill-rule="evenodd" fill="rgb(136,0,0)"/><path d=" M 174.888 796.156 C 156.255 796.156 141.127 781.029 141.127 762.396 C 141.127 743.763 156.255 728.635 174.888 728.635 C 193.521 728.635 208.648 743.763 208.648 762.396 C 208.648 781.029 193.521 796.156 174.888 796.156 Z  M 174.886 787.196 C 168.311 787.196 161.996 784.584 157.346 779.934 C 152.696 775.284 150.083 768.969 150.083 762.394 C 150.083 755.818 152.696 749.503 157.346 744.853 C 161.996 740.211 168.311 737.591 174.886 737.591 C 181.462 737.591 187.777 740.211 192.427 744.853 C 197.077 749.503 199.689 755.818 199.689 762.394 C 199.689 768.969 197.077 775.284 192.427 779.934 C 187.777 784.584 181.462 787.196 174.886 787.196 Z " fill-rule="evenodd" fill="rgb(136,0,0)"/><path d=" M 326.239 796.156 C 307.606 796.156 292.479 781.029 292.479 762.396 C 292.479 743.763 307.606 728.635 326.239 728.635 C 344.872 728.635 360 743.763 360 762.396 C 360 781.029 344.872 796.156 326.239 796.156 Z  M 326.24 787.196" fill-rule="evenodd" fill="rgb(136,0,0)"/><g clip-path="url(#_clipPath_gGdOmIOZbZljfOr3VbnlBdOzFBDIgimu)"><text transform="matrix(0.807,0,0,0.807,88.307,788.948)" style="font-family:'Josefin Sans';font-weight:700;font-size:91px;font-style:normal;fill:#880000;stroke:none;">T</text></g><defs><clipPath id="_clipPath_gGdOmIOZbZljfOr3VbnlBdOzFBDIgimu"><rect x="0" y="0" width="66" height="70.69" transform="matrix(0.807,0,0,0.807,84,733.875)"/></clipPath></defs></g></svg>