<?xml version="1.0" encoding="UTF-8" standalone="no"?><!-- Generator: Gravit.io --><svg xmlns="http://www.w3.org/2000/svg" xmlns:xlink="http://www.w3.org/1999/xlink" style="isolation:isolate" viewBox="73.36 28.971 254.64 151.029" width="254.64pt" height="151.029pt"><g><g clip-path="url(#_clipPath_I6eg6S5VJfE84NR3hh4YSYHNSnjR0iVn)"><text transform="matrix(0.484,0,0,0.484,73.36,121.961)" style="font-family:'Josefin Sans';font-weight:700;font-size:117px;font-style:normal;fill:#330505;stroke:none;">H  </text></g><defs><clipPath id="_clipPath_I6eg6S5VJfE84NR3hh4YSYHNSnjR0iVn"><rect x="0" y="0" width="107.664" height="180.202" transform="matrix(0.484,0,0,0.484,73.36,79.466)"/></clipPath></defs><g clip-path="url(#_clipPath_5t2aLPBXvc8ceejBJz47XstjiLkNdtrv)"><text transform="matrix(0.484,0,0,0.484,166.314,121.961)" style="font-family:'Josefin Sans';font-weight:700;font-size:117px;font-style:normal;fill:#330505;stroke:none;">RN  </text></g><defs><clipPath id="_clipPath_5t2aLPBXvc8ceejBJz47XstjiLkNdtrv"><rect x="0" y="0" width="207.908" height="180.202" transform="matrix(0.484,0,0,0.484,166.314,79.466)"/></clipPath></defs><g clip-path="url(#_clipPath_FxJiZcDqayAopbIUTYMWIa3nHmvDlIKs)"><text transform="matrix(0.484,0,0,0.484,166.314,170.154)" style="font-family:'Josefin Sans';font-weight:700;font-size:117px;font-style:normal;fill:#330505;stroke:none;">HELP</text></g><defs><clipPath id="_clipPath_FxJiZcDqayAopbIUTYMWIa3nHmvDlIKs"><rect x="0" y="0" width="333.868" height="108.081" transform="matrix(0.484,0,0,0.484,166.314,127.658)"/></clipPath></defs><path d=" M 119.314 99.583 C 119.314 86.286 130.11 75.49 143.407 75.49 C 156.704 75.49 167.5 86.286 167.5 99.583 C 167.5 112.88 156.704 123.676 143.407 123.676 C 130.11 123.676 119.314 112.88 119.314 99.583 Z  M 125.708 99.585 C 125.708 94.893 127.573 90.386 130.891 87.068 C 134.21 83.749 138.716 81.88 143.409 81.88 C 148.101 81.88 152.608 83.749 155.926 87.068 C 159.239 90.386 161.109 94.893 161.109 99.585 C 161.109 104.278 159.239 108.779 155.926 112.097 C 152.608 115.416 148.101 117.286 143.409 117.286 C 138.716 117.286 134.21 115.416 130.891 112.097 C 127.573 108.779 125.708 104.278 125.708 99.585 Z " fill-rule="evenodd" fill="rgb(136,0,0)"/><path d=" M 119.314 53.064 C 119.314 39.766 130.11 28.971 143.407 28.971 C 156.704 28.971 167.5 39.766 167.5 53.064 C 167.5 66.361 156.704 77.157 143.407 77.157 C 130.11 77.157 119.314 66.361 119.314 53.064 Z  M 125.708 53.063 C 125.708 48.37 127.573 43.864 130.891 40.545 C 134.21 37.227 138.716 35.362 143.409 35.362 C 148.101 35.362 152.608 37.227 155.926 40.545 C 159.239 43.864 161.109 48.37 161.109 53.063 C 161.109 57.755 159.239 62.262 155.926 65.58 C 152.608 68.899 148.101 70.763 143.409 70.763 C 138.716 70.763 134.21 68.899 130.891 65.58 C 127.573 62.262 125.708 57.755 125.708 53.063 Z " fill-rule="evenodd" fill="rgb(136,0,0)"/><path d=" M 119.314 146.102 C 119.314 132.805 130.11 122.009 143.407 122.009 C 156.704 122.009 167.5 132.805 167.5 146.102 C 167.5 159.399 156.704 170.195 143.407 170.195 C 130.11 170.195 119.314 159.399 119.314 146.102 Z  M 125.708 146.103 C 125.708 141.41 127.573 136.904 130.891 133.585 C 134.21 130.267 138.716 128.402 143.409 128.402 C 148.101 128.402 152.608 130.267 155.926 133.585 C 159.239 136.904 161.109 141.41 161.109 146.103 C 161.109 150.795 159.239 155.302 155.926 158.62 C 152.608 161.939 148.101 163.803 143.409 163.803 C 138.716 163.803 134.21 161.939 130.891 158.62 C 127.573 155.302 125.708 150.795 125.708 146.103 Z " fill-rule="evenodd" fill="rgb(136,0,0)"/></g></svg>